<?xml version="1.0" encoding="UTF-8" standalone="no"?>
<svg id="svg8" width="128" height="16" viewBox="0 0 128 16" inkscape:version="1.0.2-2 (e86c870879, 2021-01-15)" sodipodi:docname="copyright.svg" version="1.1" xmlns="http://www.w3.org/2000/svg" xmlns:cc="http://creativecommons.org/ns#" xmlns:dc="http://purl.org/dc/elements/1.1/" xmlns:inkscape="http://www.inkscape.org/namespaces/inkscape" xmlns:rdf="http://www.w3.org/1999/02/22-rdf-syntax-ns#" xmlns:sodipodi="http://sodipodi.sourceforge.net/DTD/sodipodi-0.dtd" xmlns:svg="http://www.w3.org/2000/svg" xmlns:xlink="http://www.w3.org/1999/xlink">
	<sodipodi:namedview id="namedview9" bordercolor="#666666" borderopacity="1" gridtolerance="10" guidetolerance="10" inkscape:current-layer="layer2" inkscape:cx="64.777286" inkscape:cy="14.408405" inkscape:guide-bbox="true" inkscape:pageopacity="0" inkscape:pageshadow="2" inkscape:snap-text-baseline="true" inkscape:window-height="1634" inkscape:window-maximized="1" inkscape:window-width="3072" inkscape:window-x="-11" inkscape:window-y="-11" inkscape:zoom="16" objecttolerance="10" pagecolor="#4498ff" showgrid="false" showguides="true">
		<sodipodi:guide id="guide903" orientation="0,-1" position="-15.529211,27.759985"/>
		<sodipodi:guide id="guide905" inkscape:color="rgb(0,0,255)" inkscape:label="" inkscape:locked="false" orientation="0,1" position="0,3.5"/>
	</sodipodi:namedview>
	<defs id="defs2">
		<filter id="filter1093" x="-0.080000000000000002" y="-0.18000000000000002" width="1.1600000000000001" height="1.3600000000000001" class="x786fee0e741b46f9c157c4a215b42b1f" inkscape:collect="always">
			<feGaussianBlur id="feGaussianBlur1095" inkscape:collect="always" stdDeviation="0.27344536"/>
		</filter>
		<filter id="filter1181" x="-0.070000000000000007" y="-0.23000000000000009" width="1.1600000000000001" height="1.4900000000000002" class="x786fee0e741b46f9c157c4a215b42b1f" inkscape:collect="always">
			<feGaussianBlur id="feGaussianBlur1183" inkscape:collect="always" stdDeviation="0.40106955"/>
		</filter>
	</defs>
	<metadata id="metadata5">
		<rdf:RDF>
			<cc:Work rdf:about="">
				<dc:format>image/svg+xml</dc:format>
				<dc:type rdf:resource="http://purl.org/dc/dcmitype/StillImage"/>
				<dc:title/>
			</cc:Work>
		</rdf:RDF>
	</metadata>
	<g id="layer1"/>
	<g id="layer3" inkscape:groupmode="layer" inkscape:label="dump" sodipodi:insensitive="true" style="display:none">
		<image id="tex1_128x16_cd7372e3914cd589_2" x="0" y="0" width="128" height="16" preserveAspectRatio="none" xlink:href="copyright/tex1_128x16_cd7372e3914cd589_2.png" style="image-rendering:optimizeSpeed"/>
	</g>
	<g id="layer2" inkscape:groupmode="layer" inkscape:label="hd" style="display:inline">
		<path id="path29" d="m 85.000933,-11.373823 c -0.0047,-0.521224 0.0065,-0.869383 0.178183,-1.16634 0.20991,-0.366602 0.595977,-0.540678 0.946168,-0.542725 h -8.47e-4 c 0.350209,0.0017 0.736258,0.176123 0.946186,0.542725 0.171013,0.297977 0.178174,0.646145 0.174072,1.167368 z m 2.234378,1.793039 c 0,0 0.0019,0.02659 0.0019,0.360444 0,1.087496 -0.715777,1.329167 -1.113107,1.329167 -0.397311,0 -1.125374,-0.241671 -1.125374,-1.329167 0,-0.32563 0.0019,-1.227778 0.0019,-1.227778 0,0 5.065755,0.0017 5.065755,-8.49e-4 0,-1.844241 -1.780748,-3.372061 -3.968025,-3.372061 -2.187275,0 -3.959838,1.495054 -3.959838,3.339286 0,1.844241 1.772563,3.338266 3.959838,3.338266 1.81455,0 3.347475,-1.035267 3.815448,-2.439185 z m 8.461364,-4.141088 c 1.005584,-0.02863 3.045413,0.629767 3.031073,2.983957 -0.002,0.417794 -8.5e-4,3.235866 -8.5e-4,3.235866 h -2.671643 v -3.905568 c 0,-0.518148 -0.495606,-1.094658 -1.228813,-1.094658 -0.732156,0 -1.276929,0.57651 -1.276929,1.094658 0,0.253955 0.0037,3.905568 0.0037,3.905568 h -2.669591 l 0.0019,-5.946413 2.668567,-0.0017 c 0,0 -0.0037,0.478211 0,0.625662 0.514051,-0.490495 1.255433,-0.871429 2.143246,-0.897025 z m -21.854351,0 c 1.005584,-0.02863 3.045409,0.629767 3.031066,2.983957 -0.0019,0.417794 -8.46e-4,3.235866 -8.46e-4,3.235866 h -2.671639 v -3.905568 c 0,-0.518148 -0.495626,-1.094658 -1.228812,-1.094658 -0.732165,0 -1.276929,0.57651 -1.276929,1.094658 0,0.253955 0.0037,3.905568 0.0037,3.905568 h -2.669601 l -8.46e-4,-5.946413 2.671637,-0.0017 c 0,0 -0.0037,0.478211 0,0.625662 0.514052,-0.490495 1.254411,-0.871429 2.143246,-0.897025 z m 30.681296,-2.720784 h 2.65423 v 8.942654 h -2.65832 c 0,0 -8.5e-4,-0.288769 -8.5e-4,-0.344064 -1.02913,0.646145 -2.19033,0.645117 -3.09453,0.223227 -0.24271,-0.112637 -1.839142,-0.878598 -1.839142,-2.948115 0,-1.569803 1.480732,-3.28399 3.419182,-3.114001 0.63794,0.05632 1.0916,0.288769 1.52167,0.530432 -0.002,-1.376266 -0.002,-3.290133 -0.002,-3.290133 z m 0.0194,5.939243 v -1.06292 c 0,-0.919563 -0.63489,-1.154056 -1.05268,-1.154056 -0.42804,0 -1.05472,0.234493 -1.05472,1.154056 0,0.305148 8.3e-4,1.059844 8.3e-4,1.059844 0,0 -8.3e-4,0.741376 -8.3e-4,1.057798 0,0.918535 0.62668,1.159179 1.05369,1.159179 0.41884,0 1.05474,-0.240644 1.05474,-1.159179 0,-0.381954 -8.6e-4,-1.054722 -8.6e-4,-1.054722 z m 8.52076,-0.01741 c 0,0 -8.6e-4,0.899081 -8.6e-4,1.259535 0,0.948224 -0.56012,1.339404 -1.09875,1.339404 -0.53965,0 -1.10182,-0.39118 -1.10182,-1.339404 0,-0.360454 8.3e-4,-1.282065 8.3e-4,-1.282065 0,0 0.002,-0.879617 0.002,-1.24007 0,-0.944131 0.56322,-1.332234 1.09877,-1.332234 0.53657,0 1.09875,0.388103 1.09875,1.332234 0,0.360453 -8.4e-4,1.027079 0.002,1.265676 z m -1.08033,-3.332115 c -2.17089,0 -3.93014,1.495053 -3.93014,3.339286 0,1.844239 1.76027,3.339285 3.93014,3.339285 2.1709,0 3.93015,-1.495046 3.93015,-3.339285 0,-1.844233 -1.75925,-3.339286 -3.93015,-3.339286 z m -47.131915,-0.76391 v -1.827853 h 2.695188 v 1.827853 z M 64.857135,-7.5 v -5.947432 l 2.689031,8.49e-4 v 5.946404 z m 13.491292,0 8.46e-4,-5.935148 H 76.88698 v -0.882694 l 1.463296,-8.5e-4 -0.0019,-1.204228 h 2.691096 v 1.203201 h 1.456135 v 0.884741 h -1.456135 l 0.0019,5.935147 z m -24.434855,0 8.46e-4,-8.942654 h 2.786322 l 3.854373,6.236201 -0.0019,-6.236201 h 2.764819 V -7.5 H 60.557327 L 56.68248,-13.73621 V -7.5 Z" sodipodi:nodetypes="ccccccccssscssssccscccssscccccssscccssscccccssccccccscccccssscssscccssscsssccssssscccccccccccccccccccccccccccccccccc" style="display:inline;fill:#000000;stroke:#000000;stroke-width:2;stroke-linecap:butt;stroke-linejoin:round;stroke-miterlimit:4;stroke-dasharray:none;stroke-opacity:1;paint-order:stroke markers fill;filter:url(#filter1181)"/>
		<text id="text901" x="11.444772" y="-7.5" xml:space="preserve" style="font-style:normal;font-variant:normal;font-weight:normal;font-stretch:normal;font-size:11.7437px;line-height:1.25;font-family:'FOT-Rodin Pro';-inkscape-font-specification:'FOT-Rodin Pro, Normal';font-variant-ligatures:normal;font-variant-caps:normal;font-variant-numeric:normal;font-variant-east-asian:normal;writing-mode:lr-tb;fill:#ffffff;stroke-width:2;stroke-miterlimit:4;stroke-dasharray:none;paint-order:markers fill stroke"><tspan id="tspan899" x="11.444772" y="-7.5" dx="0 0.40000001 -0.85999995 -0.56 -0.56000084" dy="-0.1 0.1" sodipodi:role="line" style="stroke-width:2;stroke-miterlimit:4;stroke-dasharray:none;paint-order:markers fill stroke">&#xA9;2000</tspan></text>
		<use id="use912" x="0" y="0" width="100%" height="100%" transform="translate(0,20)" xlink:href="#path29" style="fill:#000000;stroke:none"/>
		<use id="use914" x="0" y="0" width="100%" height="100%" transform="translate(0,20)" xlink:href="#text901" style="fill:#000000;stroke:#000000;filter:url(#filter1093)"/>
		<path id="path1089" d="m 85.000933,8.626177 c -0.0047,-0.521224 0.0065,-0.869383 0.178183,-1.16634 0.20991,-0.366602 0.595977,-0.540678 0.946168,-0.542725 h -8.47e-4 c 0.350209,0.0017 0.736258,0.176123 0.946186,0.542725 0.171013,0.297977 0.178174,0.646145 0.174072,1.167368 z m 2.234378,1.793039 c 0,0 0.0019,0.02659 0.0019,0.360444 0,1.087496 -0.715777,1.329167 -1.113107,1.329167 -0.397311,0 -1.125374,-0.241671 -1.125374,-1.329167 0,-0.32563 0.0019,-1.227778 0.0019,-1.227778 0,0 5.065755,0.0017 5.065755,-8.49e-4 0,-1.844241 -1.780748,-3.372061 -3.968025,-3.372061 -2.187275,0 -3.959838,1.495054 -3.959838,3.339286 0,1.844241 1.772563,3.338266 3.959838,3.338266 1.81455,0 3.347475,-1.035267 3.815448,-2.439185 z m 8.461365,-4.141088 c 1.00558,-0.02863 3.045407,0.629767 3.031067,2.983957 -0.002,0.417794 -8.5e-4,3.235866 -8.5e-4,3.235866 H 96.055256 V 8.592383 c 0,-0.518148 -0.49561,-1.094658 -1.228814,-1.094658 -0.732156,0 -1.276929,0.57651 -1.276929,1.094658 0,0.253955 0.0037,3.905568 0.0037,3.905568 h -2.669591 l 0.0019,-5.946413 2.668567,-0.0017 c 0,0 -0.0037,0.478211 0,0.625662 0.514051,-0.490495 1.255433,-0.871429 2.143247,-0.897025 z m -21.854352,0 c 1.005584,-0.02863 3.045409,0.629767 3.031066,2.983957 -0.0019,0.417794 -8.46e-4,3.235866 -8.46e-4,3.235866 H 74.200905 V 8.592383 c 0,-0.518148 -0.495626,-1.094658 -1.228812,-1.094658 -0.732165,0 -1.276929,0.57651 -1.276929,1.094658 0,0.253955 0.0037,3.905568 0.0037,3.905568 h -2.669601 l -8.46e-4,-5.946413 2.671637,-0.0017 c 0,0 -0.0037,0.478211 0,0.625662 C 72.214106,6.685005 72.954465,6.304071 73.8433,6.278475 Z M 104.52361,3.557344 h 2.65423 v 8.942654 h -2.65832 c 0,0 -8.5e-4,-0.288769 -8.5e-4,-0.344064 -1.02913,0.646145 -2.19033,0.645117 -3.09453,0.223227 -0.24271,-0.112637 -1.839137,-0.878598 -1.839137,-2.948115 0,-1.569803 1.480727,-3.28399 3.419177,-3.114001 0.63794,0.05632 1.0916,0.288769 1.52167,0.530432 -0.002,-1.376266 -0.002,-3.290133 -0.002,-3.290133 z m 0.0194,5.939243 v -1.06292 c 0,-0.919563 -0.63489,-1.154056 -1.05268,-1.154056 -0.42804,0 -1.05472,0.234493 -1.05472,1.154056 0,0.305148 8.3e-4,1.059844 8.3e-4,1.059844 0,0 -8.3e-4,0.741376 -8.3e-4,1.057798 0,0.918535 0.62668,1.159179 1.05369,1.159179 0.41884,0 1.05474,-0.240644 1.05474,-1.159179 0,-0.381954 -8.6e-4,-1.054722 -8.6e-4,-1.054722 z m 8.52076,-0.01741 c 0,0 -8.6e-4,0.899081 -8.6e-4,1.259535 0,0.948224 -0.56012,1.339404 -1.09875,1.339404 -0.53965,0 -1.10182,-0.39118 -1.10182,-1.339404 0,-0.360454 8.3e-4,-1.282065 8.3e-4,-1.282065 0,0 0.002,-0.879617 0.002,-1.24007 0,-0.944131 0.56322,-1.332234 1.09877,-1.332234 0.53657,0 1.09875,0.388103 1.09875,1.332234 0,0.360453 -8.4e-4,1.027079 0.002,1.265676 z m -1.08033,-3.332115 c -2.17089,0 -3.93014,1.495053 -3.93014,3.339286 0,1.844239 1.76027,3.339285 3.93014,3.339285 2.1709,0 3.93015,-1.495046 3.93015,-3.339285 0,-1.844233 -1.75925,-3.339286 -3.93015,-3.339286 z M 64.851535,5.383152 V 3.555299 h 2.695188 V 5.383152 Z M 64.857135,12.5 V 6.552568 l 2.689031,8.49e-4 v 5.946404 z m 13.491292,0 8.46e-4,-5.935148 H 76.88698 V 5.682158 l 1.463296,-8.5e-4 -0.0019,-1.204228 h 2.691096 v 1.203201 h 1.456135 v 0.884741 h -1.456135 l 0.0019,5.935147 z m -24.434855,0 8.46e-4,-8.942654 h 2.786322 l 3.854373,6.236201 -0.0019,-6.236201 h 2.764819 V 12.5 H 60.557327 L 56.68248,6.26379 V 12.5 Z" sodipodi:nodetypes="ccccccccssscssssccscccssscccccssscccssscccccssccccccscccccssscssscccssscsssccssssscccccccccccccccccccccccccccccccccc" style="display:inline;fill:#ffffff;stroke:none;stroke-width:2;stroke-linecap:butt;stroke-linejoin:round;stroke-miterlimit:4;stroke-dasharray:none;stroke-opacity:1;paint-order:stroke markers fill"/>
		<use id="use1091" x="0" y="0" width="100%" height="100%" transform="translate(0,20)" xlink:href="#text901"/>
	</g>
	<style id="style7" type="text/css">.logo{fill:#939598}  .x786fee0e741b46f9c157c4a215b42b1f{color-interpolation-filters:sRGB;}
	</style>
</svg>
