<?xml version="1.0" encoding="UTF-8" standalone="no"?>
<svg id="svg4292" width="656" height="127.99999" viewBox="0 0 655.99997 127.99999" inkscape:version="1.0.2-2 (e86c870879, 2021-01-15)" sodipodi:docname="day-screens.svg" version="1.1" xmlns="http://www.w3.org/2000/svg" xmlns:cc="http://creativecommons.org/ns#" xmlns:dc="http://purl.org/dc/elements/1.1/" xmlns:inkscape="http://www.inkscape.org/namespaces/inkscape" xmlns:rdf="http://www.w3.org/1999/02/22-rdf-syntax-ns#" xmlns:sodipodi="http://sodipodi.sourceforge.net/DTD/sodipodi-0.dtd" xmlns:svg="http://www.w3.org/2000/svg" xmlns:xlink="http://www.w3.org/1999/xlink">
	<style>
		.xfb8c6c98cf58004e8316f42e6a519604{image-rendering:optimizeSpeed;}
		.x887c870b2800529b6e3179469a231fc0{-inkscape-font-specification:'FOT-Rodin Pro, Ultra-Bold Extra-Expanded';baseline-shift:baseline;clip-rule:nonzero;color-interpolation-filters:linearRGB;color-interpolation:sRGB;color-rendering:auto;color:#000000;direction:ltr;display:inline;enable-background:accumulate;fill-opacity:1;fill-rule:nonzero;fill:#ffffff;font-family:'FOT-Rodin Pro';font-stretch:extra-expanded;font-style:normal;font-variant:normal;font-weight:800;image-rendering:auto;isolation:auto;letter-spacing:0px;line-height:0%;mix-blend-mode:normal;opacity:1;overflow:visible;shape-rendering:auto;solid-color:#000000;solid-opacity:1;stroke-dasharray:none;stroke-dashoffset:0;stroke-linecap:butt;stroke-linejoin:miter;stroke-miterlimit:4;stroke-opacity:1;stroke-width:1px;stroke:none;text-align:start;text-anchor:start;text-decoration-color:#000000;text-decoration-line:none;text-decoration-style:solid;text-decoration:none;text-indent:0;text-rendering:auto;text-transform:none;visibility:visible;white-space:normal;word-spacing:0px;writing-mode:lr-tb;}
		.xa11db842e39d0b4e3366105f5acfdaeb{fill:#ffffff;letter-spacing:-4px;}
		.x43625e21b55b9213f6f89854c1b1c8d9{-inkscape-font-specification:'FOT-RodinCattleya Pro, Ultra-Bold';fill:#ffffff;font-family:'FOT-RodinCattleya Pro';font-size:22px;font-stretch:normal;font-style:normal;font-variant:normal;font-weight:800;line-height:100%;text-align:start;text-anchor:start;writing-mode:lr-tb;}
		.xab8b70c3c1bb272ff072789479890301{fill:#ffffff;letter-spacing:-0.25px;}
		.xba8f2b1ea5fd81f1b12a4ee22ced6b27{fill:#ffffff;letter-spacing:-2px;}
	</style>
	<sodipodi:namedview id="base" bordercolor="#666666" borderopacity="1.0" fit-margin-bottom="0" fit-margin-left="0" fit-margin-right="0" fit-margin-top="0" inkscape:current-layer="layer1" inkscape:cx="178.74088" inkscape:cy="96.515929" inkscape:document-rotation="0" inkscape:document-units="px" inkscape:guide-bbox="true" inkscape:pageopacity="0" inkscape:pageshadow="2" inkscape:snap-text-baseline="true" inkscape:window-height="2066" inkscape:window-maximized="1" inkscape:window-width="3840" inkscape:window-x="-11" inkscape:window-y="-11" inkscape:zoom="1.4142136" pagecolor="#53a898" showgrid="false" showguides="true" units="px">
		<sodipodi:guide id="guide4185" inkscape:color="rgb(0,0,255)" inkscape:label="" orientation="0,1" position="257.56363,75.749999"/>
		<sodipodi:guide id="guide4557" inkscape:color="rgb(0,0,255)" inkscape:label="" orientation="0,1" position="20.01996,77.499999"/>
		<sodipodi:guide id="guide5681" inkscape:color="rgb(0,0,255)" inkscape:label="" orientation="0,1" position="-97.249996,6.4999999"/>
		<sodipodi:guide id="guide6133" inkscape:color="rgb(0,0,255)" inkscape:label="" orientation="0,1" position="187.49999,12.75"/>
		<sodipodi:guide id="guide6816" inkscape:color="rgb(0,0,255)" inkscape:label="" orientation="0,1" position="489.74998,104.5"/>
		<sodipodi:guide id="guide7226" inkscape:color="rgb(0,0,255)" inkscape:label="" orientation="1,0" position="515.74998,131.4375"/>
		<sodipodi:guide id="guide7248" inkscape:color="rgb(0,0,255)" inkscape:label="" orientation="0,1" position="503.12498,71.499999"/>
		<sodipodi:guide id="guide7250" inkscape:color="rgb(0,0,255)" inkscape:label="" orientation="0,1" position="501.24998,39.499999"/>
	</sodipodi:namedview>
	<defs id="defs4294"/>
	<metadata id="metadata4297">
		<rdf:RDF>
			<cc:Work rdf:about="">
				<dc:format>image/svg+xml</dc:format>
				<dc:type rdf:resource="http://purl.org/dc/dcmitype/StillImage"/>
				<dc:title/>
			</cc:Work>
		</rdf:RDF>
	</metadata>
	<g id="layer1" inkscape:groupmode="layer" inkscape:label="dump" style="display:inline;opacity:0">
		<image id="tex1_128x64_3b83e07b3e7183bb_0" x="0" y="0" width="128" height="64" class="xfb8c6c98cf58004e8316f42e6a519604" preserveAspectRatio="none" xlink:href="day-screens/tex1_128x64_3b83e07b3e7183bb_0.png"/>
		<image id="tex1_128x64_20c06539ab6dae5f_0" x="256" y="64" width="128" height="64" class="xfb8c6c98cf58004e8316f42e6a519604" preserveAspectRatio="none" xlink:href="day-screens/tex1_128x64_20c06539ab6dae5f_0.png"/>
		<image id="tex1_128x64_31c03f381496e59d_0" x="128" y="64" width="128" height="64" class="xfb8c6c98cf58004e8316f42e6a519604" preserveAspectRatio="none" xlink:href="day-screens/tex1_128x64_31c03f381496e59d_0.png"/>
		<image id="tex1_128x64_49eb0db952bb2a3b_0" x="256" y="0" width="128" height="64" class="xfb8c6c98cf58004e8316f42e6a519604" preserveAspectRatio="none" xlink:href="day-screens/tex1_128x64_49eb0db952bb2a3b_0.png"/>
		<image id="tex1_128x64_954f06ff3c26b948_0" x="384" y="0" width="128" height="64" class="xfb8c6c98cf58004e8316f42e6a519604" preserveAspectRatio="none" xlink:href="day-screens/tex1_128x64_954f06ff3c26b948_0.png"/>
		<image id="tex1_128x64_1759650d91819b0f_0" x="0" y="64" width="128" height="64" class="xfb8c6c98cf58004e8316f42e6a519604" preserveAspectRatio="none" xlink:href="day-screens/tex1_128x64_1759650d91819b0f_0.png"/>
		<image id="tex1_128x64_c116317b5c3bdf12_0" x="128" y="0" width="128" height="64" class="xfb8c6c98cf58004e8316f42e6a519604" preserveAspectRatio="none" xlink:href="day-screens/tex1_128x64_c116317b5c3bdf12_0.png"/>
		<image id="tex1_128x64_d0e0ed342852864e_0" x="384" y="64" width="128" height="64" class="xfb8c6c98cf58004e8316f42e6a519604" preserveAspectRatio="none" xlink:href="day-screens/tex1_128x64_d0e0ed342852864e_0.png"/>
		<image id="tex1_144x32_a384caa5084e59f4_0" x="512" y="32" width="144" height="32" class="xfb8c6c98cf58004e8316f42e6a519604" preserveAspectRatio="none" xlink:href="day-screens/tex1_144x32_a384caa5084e59f4_0.png"/>
		<image id="tex1_144x32_a8795168298a7e98_0" x="512" y="0" width="144" height="32" class="xfb8c6c98cf58004e8316f42e6a519604" preserveAspectRatio="none" xlink:href="day-screens/tex1_144x32_a8795168298a7e98_0.png"/>
		<image id="tex1_144x32_afe27cd2bb57bcf4_0" x="512" y="64" width="144" height="32" class="xfb8c6c98cf58004e8316f42e6a519604" preserveAspectRatio="none" xlink:href="day-screens/tex1_144x32_afe27cd2bb57bcf4_0.png"/>
	</g>
	<g id="layer3" inkscape:groupmode="layer" inkscape:label="hd" sodipodi:insensitive="true" style="display:inline;opacity:1">
		<path id="rect6809" d="m 256,64 0,64 256,0 0,-64 -256,0 z m 20.98242,7.472656 7.04297,0 0,2.808594 5.90039,0 0,8.001953 -1.14453,0 c -0.17609,0.742 -0.52884,2.438313 -0.79297,3.445313 l 2.28906,0 0,7.419922 -6.42773,0 0,1.855468 5.85547,0 0,7.419924 -3.96289,0 c 1.14456,1.643 2.99349,3.33897 4.49023,4.29297 1.10055,-4.293 1.23242,-8.374003 1.23242,-13.250003 l 0,-4.664063 0,-14.203125 1.54102,0 0.2207,0 c 7.92391,0 12.32617,-2.916015 12.32617,-2.916015 l 3.83008,7.419922 c 0,0 -5.19529,2.969109 -10.83008,3.287109 l 0,4.240234 10.83008,0 0,8.214844 -2.11328,0 0,24.378907 -6.82422,0 0,-24.378907 -1.89258,0 c 0,8.479997 -1.05519,17.225237 -4.13671,24.115237 l -5.3711,-6.57227 -1.6289,3.33789 c 0,0 -2.37782,-3.33856 -3.56641,-7.10156 l 0,10.54688 -7.04297,0 0,-8.74415 c -1.0125,2.491 -2.73026,5.03368 -4.53516,6.88868 l -2.50781,-9.69922 c 2.11305,-1.325 4.44633,-3.55036 5.54688,-5.19336 l -4.71094,0 0,-7.419924 6.20703,0 0,-1.855468 -6.64648,0 0,-7.419922 2.99218,0 c -0.2201,-1.06 -0.43914,-2.438313 -0.61523,-3.445313 l -1.7168,0 0,-8.001953 6.16211,0 0,-2.808594 z m 192.09961,0.05273 7.04297,0 0,2.595703 5.85547,0 0,7.367187 -5.85547,0 0,1.697266 5.50391,0 0,20.562498 -5.50391,0 0,1.69726 6.16406,0 0,5.98828 c 1.14457,-5.035 1.23242,-11.872288 1.23242,-15.529288 l 0,-2.119141 0,-20.669922 17.08008,0 0,39.697271 c 0,4.399 -0.9251,5.66992 -8.6289,5.66992 l -2.02344,-8.21484 0.57226,0 c 2.99348,0 3.03711,-0.0526 3.03711,-1.64258 l 0,-0.1582 0,-4.82422 -3.30273,0 c -0.26413,5.194 -1.05554,11.23629 -2.81641,15.5293 l -6.07617,-4.98243 c 0.17609,-0.424 0.35336,-0.84722 0.44141,-1.32422 l -5.67969,0 0,6.35938 -7.04297,0 0,-6.35938 -6.7793,0 0,-7.41992 6.7793,0 0,-1.69726 -5.63476,0 0,-20.562508 5.63476,0 0,-1.697266 -6.29492,0 0,-7.367187 6.29492,0 0,-2.595703 z m -81.74023,1.537109 32.09179,0 0,46.162105 -7.48242,0 0,-1.74805 -17.125,0 0,1.74805 -7.48437,0 0,-46.162105 z m -74.06055,0.105469 7.79102,0.21289 c -0.57229,10.017 -0.79282,26.181157 -0.88086,29.785166 l 0,0.31836 c 0,3.551 1.58644,5.88281 4.66797,5.88281 0.74836,0 1.62722,-0.15856 2.5957,-0.47657 5.01848,-1.643 9.9053,-8.53284 11.57812,-14.839844 l 6.11914,6.730474 c -2.90543,6.996 -8.14431,14.14989 -15.58398,16.58789 -1.6288,0.53 -3.25792,0.79492 -4.88672,0.79492 -6.11902,0 -11.66406,-4.02756 -11.66406,-13.72656 l 0,-0.31836 c 0.088,-4.081 0.35156,-14.149364 0.35156,-23.318364 0,-2.65 -0.0439,-5.300812 -0.0879,-7.632812 z m 36.38086,1.537109 7.35156,1.431641 c -1.76087,6.996 -2.42187,14.574656 -2.42187,20.722656 0,2.968 0.13325,5.61854 0.4414,7.68555 0.088,0.583 0.35095,0.90039 0.70313,0.90039 0.26413,0 0.52884,-0.21298 0.79297,-0.58398 1.05652,-1.59 2.28933,-4.02791 3.25781,-6.253913 l 5.54687,6.148443 c -1.2326,2.544 -2.33332,4.71737 -4.40234,8.10937 -1.58478,2.597 -3.65379,3.92188 -5.63476,3.92188 -2.86142,0 -5.59177,-2.65064 -6.73633,-8.05664 -0.74837,-3.445 -1.05664,-7.78966 -1.05664,-12.347663 0,-7.314 0.83755,-15.370734 2.1582,-21.677734 z m 93.46289,0.05273 c 0.70435,10e-7 1.36401,0.05247 2.06836,0.105469 11.18152,1.113 16.55273,10.601516 16.55273,20.353516 0,10.070002 -5.81082,20.403252 -16.90429,21.781252 l -4.49024,-8.32032 0.30664,0 c 9.28859,0 13.7793,-7.10076 13.7793,-13.88476 0,-5.194 -2.64047,-10.177844 -7.79102,-11.714844 -1.45271,9.328 -4.31392,20.087244 -6.86718,25.281254 -2.33316,4.717 -5.28433,6.83789 -8.01368,6.83789 -3.38967,0 -6.42649,-3.18021 -7.70312,-8.53321 -0.6163,-2.597 -0.92383,-5.14154 -0.92383,-7.685543 0,-12.985001 7.83633,-24.220704 19.98633,-24.220704 z m 47.43945,5.72461 0,4.027344 2.99414,0 0,-4.027344 -2.99414,0 z m -115.36914,0.05273 c 4.71033,6.413 8.27582,17.331703 9.15625,25.970707 l -7.48437,2.64844 c -0.70435,-8.692 -3.38884,-17.753381 -7.79102,-24.484381 l 6.11914,-4.134766 z m 19.63086,0.742188 0,9.751953 17.125,0 0,-9.751953 -17.125,0 z M 279.22852,82.28319 c 0.13206,0.848 0.39617,2.438313 0.57226,3.445313 l 1.4082,0 c 0.30816,-1.007 0.65985,-2.650313 0.83594,-3.445313 l -2.8164,0 z m 160.0664,0.955078 c -5.98695,2.173 -9.24609,9.486594 -9.24609,16.058594 0,1.484008 0.17622,2.862498 0.48437,4.187508 0.30816,1.325 0.83788,2.01367 1.41016,2.01367 0.52826,0 1.10064,-0.47711 1.62891,-1.53711 2.42119,-4.664006 4.57809,-12.772662 5.72265,-20.722662 z m 30.31446,5.777344 0,1.695313 5.85546,0 0,-1.695313 -5.85546,0 z m 20.95507,2.861328 0,4.398438 2.99414,0 0,-4.398438 -2.99414,0 z m -20.95507,4.345703 0,1.697266 5.85546,0 0,-1.697266 -5.85546,0 z m -74.78321,3.021485 0,10.017582 17.125,0 0,-10.017582 -17.125,0 z" inkscape:connector-curvature="0" style="opacity:1;fill:#ffffff;fill-opacity:1;fill-rule:nonzero;stroke:none;stroke-width:1.5;stroke-linejoin:round;stroke-miterlimit:4;stroke-dasharray:none;stroke-opacity:0.31372549"/>
		<text id="text4745" x="279.1438" y="49.873909" class="x887c870b2800529b6e3179469a231fc0" transform="scale(0.95452472,1.0476418)" xml:space="preserve"><tspan id="tspan4747" x="279.1438" y="49.873909" sodipodi:role="line" style="font-size:53.4534px;line-height:1"><tspan id="tspan4749" class="xa11db842e39d0b4e3366105f5acfdaeb">&#x6B21;</tspan><tspan id="tspan4839" style="letter-spacing:-7px;fill:#ffffff">&#x306E;</tspan><tspan id="tspan5185" style="letter-spacing:-7.25px;fill:#ffffff">&#x65E5;</tspan><tspan id="tspan5189" style="letter-spacing:-3px;fill:#ffffff">&#x306E;</tspan>&#x671D;</tspan></text>
		<text id="text5275" x="40.70541" y="48.706772" class="x887c870b2800529b6e3179469a231fc0" transform="scale(0.96449076,1.0368166)" xml:space="preserve"><tspan id="tspan5277" x="40.70541" y="48.706772" sodipodi:role="line" style="font-size:49.189px;line-height:1"><tspan id="tspan5279" style="letter-spacing:-3.4949px;fill:#ffffff">&#x6700;</tspan><tspan id="tspan5393" style="letter-spacing:-4.74308px;fill:#ffffff">&#x521D;</tspan><tspan id="tspan5675" style="letter-spacing:-4.49345px;fill:#ffffff">&#x306E;</tspan>&#x671D;</tspan></text>
		<text id="text5677" x="8.5956087" y="116.44673" class="x887c870b2800529b6e3179469a231fc0" transform="scale(0.95840935,1.0433955)" xml:space="preserve"><tspan id="tspan5679" x="8.5956087" y="116.44673" sodipodi:role="line" style="font-size:66.1302px;line-height:1"><tspan id="tspan5683" class="xa11db842e39d0b4e3366105f5acfdaeb">&#x6700;</tspan><tspan id="tspan5827" style="letter-spacing:-5.5px;fill:#ffffff">&#x671F;&#x306E;</tspan>&#x671D;</tspan></text>
		<text id="text6812" x="515.75" y="23.49999" class="x887c870b2800529b6e3179469a231fc0" transform="translate(3.5861283e-6)" xml:space="preserve"><tspan id="tspan6814" x="515.75" y="23.49999" class="x43625e21b55b9213f6f89854c1b1c8d9" sodipodi:role="line"><tspan id="tspan6962" class="xab8b70c3c1bb272ff072789479890301">-</tspan><tspan id="tspan7028" class="xba8f2b1ea5fd81f1b12a4ee22ced6b27">&#x3042;</tspan><tspan id="tspan7154" style="letter-spacing:-1.25px;fill:#ffffff">&#x3068;</tspan>24&#x6642;&#x9593;-</tspan></text>
		<text id="text7228" x="515.75" y="56.499992" class="x887c870b2800529b6e3179469a231fc0" xml:space="preserve"><tspan id="tspan7230" x="515.75" y="56.499992" class="x43625e21b55b9213f6f89854c1b1c8d9" sodipodi:role="line"><tspan id="tspan7232" class="xab8b70c3c1bb272ff072789479890301">-</tspan><tspan id="tspan7234" class="xba8f2b1ea5fd81f1b12a4ee22ced6b27">&#x3042;</tspan><tspan id="tspan7236" style="letter-spacing:-1.4px;fill:#ffffff">&#x3068;</tspan><tspan id="tspan7358" style="letter-spacing:0.25px;fill:#ffffff">4</tspan>8&#x6642;&#x9593;-</tspan></text>
		<text id="text7238" x="515.75" y="88.499992" class="x887c870b2800529b6e3179469a231fc0" xml:space="preserve"><tspan id="tspan7240" x="515.75" y="88.499992" class="x43625e21b55b9213f6f89854c1b1c8d9" sodipodi:role="line"><tspan id="tspan7242" class="xab8b70c3c1bb272ff072789479890301">-</tspan><tspan id="tspan7244" class="xba8f2b1ea5fd81f1b12a4ee22ced6b27">&#x3042;</tspan><tspan id="tspan7246" style="letter-spacing:-1.1px;fill:#ffffff">&#x3068;</tspan><tspan id="tspan7436" style="letter-spacing:-1px;fill:#ffffff">7</tspan>2&#x6642;&#x9593;-</tspan></text>
	</g>
</svg>
