<?xml version="1.0" encoding="UTF-8" standalone="no"?>
<svg xmlns:osb="http://www.openswatchbook.org/uri/2009/osb" xmlns:dc="http://purl.org/dc/elements/1.1/" xmlns:cc="http://creativecommons.org/ns#" xmlns:rdf="http://www.w3.org/1999/02/22-rdf-syntax-ns#" xmlns:svg="http://www.w3.org/2000/svg" xmlns="http://www.w3.org/2000/svg" xmlns:xlink="http://www.w3.org/1999/xlink" xmlns:sodipodi="http://sodipodi.sourceforge.net/DTD/sodipodi-0.dtd" xmlns:inkscape="http://www.inkscape.org/namespaces/inkscape" width="64" height="48" viewBox="0 0 64 48" id="svg2" version="1.1" inkscape:version="1.0.2-2 (e86c870879, 2021-01-15)" sodipodi:docname="control.svg">
  <sodipodi:namedview id="base" pagecolor="#819dde" bordercolor="#666666" borderopacity="1.0" inkscape:pageopacity="0" inkscape:pageshadow="2" inkscape:zoom="16" inkscape:cx="-2.445484" inkscape:cy="4.2700758" inkscape:document-units="px" inkscape:current-layer="layer1" showgrid="false" units="px" inkscape:snap-page="true" inkscape:window-width="3840" inkscape:window-height="2066" inkscape:window-x="-11" inkscape:window-y="-11" inkscape:window-maximized="1" showguides="false" inkscape:guide-bbox="true" inkscape:snap-text-baseline="true" inkscape:object-nodes="true" inkscape:document-rotation="0">
    <sodipodi:guide position="0,3" orientation="0,1" id="guide4325" inkscape:label="" inkscape:color="rgb(0,0,255)"/>
    <sodipodi:guide position="0,18" orientation="0,1" id="guide4327" inkscape:label="" inkscape:color="rgb(0,0,255)"/>
    <sodipodi:guide inkscape:color="rgb(0,0,255)" inkscape:label="" position="17.1,32.000017" orientation="1,0" id="guide4329"/>
    <sodipodi:guide inkscape:color="rgb(0,0,255)" inkscape:label="" position="33.1,33.1" orientation="1,0" id="guide4331"/>
    <sodipodi:guide position="48,32.000017" orientation="1,0" id="guide4333"/>
    <sodipodi:guide position="64,32.000017" orientation="1,0" id="guide4335"/>
    <sodipodi:guide inkscape:color="rgb(0,0,255)" inkscape:label="" id="guide4352" orientation="0,1" position="-19,35"/>
    <sodipodi:guide inkscape:color="rgb(0,0,255)" inkscape:label="" id="guide4356" orientation="1,0" position="1.1,51.176853"/>
    <sodipodi:guide inkscape:color="rgb(0,0,255)" inkscape:label="" id="guide4392" orientation="0,1" position="32.029728,34.66666"/>
    <sodipodi:guide inkscape:color="rgb(0,0,255)" inkscape:label="" id="guide4464" orientation="0,1" position="-3.1819805,14.5"/>
  </sodipodi:namedview>
  <defs id="defs4">
    <radialGradient gradientUnits="userSpaceOnUse" gradientTransform="matrix(0.88497474,-0.00578572,0.00338711,0.51805417,49.489831,82.632924)" r="6" fy="4.8651452" fx="7.9834137" cy="4.8651452" cx="7.9834137" id="radialGradient4177" xlink:href="#linearGradient4167" inkscape:collect="always"/>
    <linearGradient osb:paint="gradient" id="linearGradient4167">
      <stop id="stop4169" offset="0" style="stop-color:#ffffff;stop-opacity:1"/>
      <stop style="stop-color:#ffffff;stop-opacity:1" offset="0.2690303" id="stop4148"/>
      <stop style="stop-color:#ffffff;stop-opacity:0.49803922" offset="0.48761743" id="stop4146"/>
      <stop style="stop-color:#ffffff;stop-opacity:1" offset="0.6727407" id="stop4144"/>
      <stop style="stop-color:#ffffff;stop-opacity:0.49803922" offset="0.8664605" id="stop4142"/>
      <stop id="stop4171" offset="1" style="stop-color:#ffffff;stop-opacity:1"/>
    </linearGradient>
    <filter height="1.1028571" y="-0.051428571" width="1.144" x="-0.072" id="filter4479" style="color-interpolation-filters:sRGB" inkscape:collect="always">
      <feGaussianBlur id="feGaussianBlur4481" stdDeviation="0.01" inkscape:collect="always"/>
    </filter>
  </defs>
  <metadata id="metadata7">
    <rdf:RDF>
      <cc:Work rdf:about="">
        <dc:format>image/svg+xml</dc:format>
        <dc:type rdf:resource="http://purl.org/dc/dcmitype/StillImage"/>
        <dc:title/>
      </cc:Work>
    </rdf:RDF>
  </metadata>
  <g style="display:inline;opacity:0" inkscape:label="export" inkscape:groupmode="layer" id="layer1" transform="translate(0,-1004.3622)">
    <image width="16" height="16" preserveAspectRatio="none" style="image-rendering:optimizeSpeed" id="tex1_16x16_7b2805eb1ec0c97d_0" x="48" y="1004.3622" xlink:href="control/tex1_16x16_7b2805eb1ec0c97d_0.png"/>
    <image width="16" height="16" preserveAspectRatio="none" style="image-rendering:optimizeSpeed" id="tex1_16x16_7c95b2e914723be3_0" x="16" y="1004.3622" xlink:href="control/tex1_16x16_7c95b2e914723be3_0.png"/>
    <image width="16" height="16" preserveAspectRatio="none" style="image-rendering:optimizeSpeed" id="tex1_16x16_21f71b347dc114dd_0" x="32" y="1020.3622" xlink:href="control/tex1_16x16_21f71b347dc114dd_0.png"/>
    <image width="16" height="16" preserveAspectRatio="none" style="image-rendering:optimizeSpeed" id="tex1_16x16_67c3509ce5ac4ffa_0" x="48" y="1036.3622" xlink:href="control/tex1_16x16_67c3509ce5ac4ffa_0.png"/>
    <image width="16" height="16" preserveAspectRatio="none" style="image-rendering:optimizeSpeed" id="tex1_16x16_89bf9b13660f2c99_0" x="16" y="1020.3622" xlink:href="control/tex1_16x16_89bf9b13660f2c99_0.png"/>
    <image width="16" height="16" preserveAspectRatio="none" style="image-rendering:optimizeSpeed" id="tex1_16x16_4708da15e2617a86_0" x="32" y="1004.3622" xlink:href="control/tex1_16x16_4708da15e2617a86_0.png"/>
    <image xlink:href="control/tex1_16x16_30688c67e0786401_0.png" y="1004.3622" x="0" id="tex1_16x16_30688c67e0786401_0" style="image-rendering:optimizeSpeed" preserveAspectRatio="none" height="16" width="16"/>
    <image width="16" height="16" preserveAspectRatio="none" style="image-rendering:optimizeSpeed" id="tex1_16x16_aa98f7c5e06840bd_0" x="0" y="1036.3622" xlink:href="control/tex1_16x16_aa98f7c5e06840bd_0.png"/>
    <image width="16" height="16" preserveAspectRatio="none" style="image-rendering:optimizeSpeed" id="tex1_16x16_b89573220355b1ab_0" x="0" y="1020.3622" xlink:href="control/tex1_16x16_b89573220355b1ab_0.png"/>
    <image width="16" height="16" preserveAspectRatio="none" style="image-rendering:optimizeSpeed" id="tex1_16x16_dc0a74a8903e9d12_0" x="32" y="1036.3622" xlink:href="control/tex1_16x16_dc0a74a8903e9d12_0.png"/>
    <image width="16" height="16" preserveAspectRatio="none" style="image-rendering:optimizeSpeed" id="tex1_16x16_f4d3fc331c7a8111_0" x="16" y="1036.3622" xlink:href="control/tex1_16x16_f4d3fc331c7a8111_0.png"/>
    <image width="16" height="16" preserveAspectRatio="none" style="image-rendering:optimizeSpeed" id="tex1_16x16_f5022f463973c72d_0" x="48" y="1020.3622" xlink:href="control/tex1_16x16_f5022f463973c72d_0.png"/>
  </g>
  <g style="display:inline;opacity:1" transform="translate(0,-80)" inkscape:label="new" id="layer2" inkscape:groupmode="layer" sodipodi:insensitive="true">
    <path inkscape:connector-curvature="0" id="rect4491" transform="translate(0,80)" d="m 2.0996094,32.5 c -0.554,0 -1,0.446 -1,1 v 13 c 0,0.554 0.446,1 1,1 H 13.900391 c 0.554,0 1,-0.446 1,-1 v -13 c 0,-0.554 -0.446,-1 -1,-1 z m 2.8359375,1.775391 h 2.0625 v 8.882812 H 11.824219 V 45 H 4.9355469 Z" style="fill:#ffffff;fill-opacity:1;stroke:none;stroke-width:1.5;stroke-linejoin:round;stroke-miterlimit:4;stroke-dasharray:none"/>
    <path inkscape:connector-curvature="0" id="rect4468" transform="translate(0,80)" d="m 34.099609,32.5 c -0.554,0 -1,0.446 -1,1 v 13 c 0,0.554 0.446,1 1,1 h 11.800782 c 0.554,0 1,-0.446 1,-1 v -13 c 0,-0.554 -0.446,-1 -1,-1 z m 2.273438,1.775391 h 7.423828 v 1.52539 l -5.416016,7.480469 h 5.429688 V 45 h -7.822266 v -1.650391 l 5.388672,-7.355468 h -5.003906 z" style="fill:#ffffff;fill-opacity:1;stroke:none;stroke-width:1.5;stroke-linejoin:round;stroke-miterlimit:4;stroke-dasharray:none"/>
    <path inkscape:connector-curvature="0" id="rect4466" transform="translate(0,80)" d="m 18.099609,32.5 c -0.554,0 -1,0.446 -1,1 v 13 c 0,0.554 0.446,1 1,1 h 11.800782 c 0.554,0 1,-0.446 1,-1 v -13 c 0,-0.554 -0.446,-1 -1,-1 z m 2.175782,1.775391 h 4.332031 c 2.02125,0 3.451172,1.16875 3.451172,3.09375 0,1.71875 -0.784532,2.624921 -1.925782,2.982421 L 28.759766,45 h -2.40625 l -2.13086,-4.304688 H 22.283203 V 45 h -2.007812 z m 2.007812,1.705078 v 3.107422 h 1.980469 c 1.03125,0 1.71875,-0.564297 1.71875,-1.623047 0,-0.9625 -0.742344,-1.484375 -1.746094,-1.484375 z" style="fill:#ffffff;fill-opacity:1;stroke:none;stroke-width:1.5;stroke-linejoin:round;stroke-miterlimit:4;stroke-dasharray:none"/>
    <rect ry="1" rx="1" y="83.862175" x="-18.257048" height="15" width="13.8" id="rect4462" style="fill:#008000;fill-opacity:1;stroke:none;stroke-width:1.5;stroke-linejoin:round;stroke-miterlimit:4;stroke-dasharray:none"/>
    <path inkscape:connector-curvature="0" id="circle4362" transform="translate(0,80)" d="M 40,0.5 A 7.5,7.5 0 0 0 32.5,8 7.5,7.5 0 0 0 40,15.5 7.5,7.5 0 0 0 47.5,8 7.5,7.5 0 0 0 40,0.5 Z m 0.191406,1.8476562 c 1.91125,0 3.313203,0.8935938 3.876953,2.0898438 l -1.292968,1.1953125 c -0.39875,-0.8525 -1.374922,-1.484375 -2.419922,-1.484375 -1.6775,0 -2.982422,1.41625 -2.982422,3.78125 0,2.5850005 1.359844,3.8359375 2.996094,3.8359375 1.03125,0 2.104922,-0.617734 2.544921,-1.552734 l 1.236329,1.263671 c -0.67375,1.278751 -2.102813,2.117188 -3.945313,2.117188 -2.9975,0 -5.019531,-2.157812 -5.019531,-5.6640625 0,-3.355 2.022109,-5.5820313 5.005859,-5.5820313 z" style="fill:#ffffff;fill-opacity:1;stroke:none;stroke-width:1.5;stroke-linejoin:round;stroke-miterlimit:4;stroke-dasharray:none"/>
    <path inkscape:connector-curvature="0" id="circle4360" transform="translate(0,80)" d="M 24,0.5 A 7.5,7.5 0 0 0 16.5,8 7.5,7.5 0 0 0 24,15.5 7.5,7.5 0 0 0 31.5,8 7.5,7.5 0 0 0 24,0.5 Z m -3.439453,2.1074219 h 4.236328 c 1.98,0 3.298828,1.1141406 3.298828,2.6816406 0,1.265 -0.646484,2.0769531 -1.677734,2.2832031 l 0.01367,0.027344 c 1.155,0.12375 2.283203,1.0725781 2.283203,2.7363284 0,1.814999 -1.403203,2.998046 -3.658203,2.998046 H 20.560545 V 2.6074221 Z m 2.035156,1.6503906 v 2.7089844 h 1.994141 c 0.89375,0 1.484375,-0.4403907 1.484375,-1.3066407 0,-0.94875 -0.796094,-1.4023437 -1.621094,-1.4023437 z m 0,4.2910156 v 3.0800779 h 2.1875 c 1.1275,0 1.896485,-0.550859 1.896485,-1.568359 -10e-7,-1.0175001 -0.949375,-1.5117189 -1.953126,-1.5117189 z" style="fill:#ffffff;fill-opacity:1;stroke:none;stroke-width:1.5;stroke-linejoin:round;stroke-miterlimit:4;stroke-dasharray:none"/>
    <path inkscape:connector-curvature="0" id="path4358" transform="translate(0,80)" d="M 8,0.5 A 7.5,7.5 0 0 0 0.5,8 7.5,7.5 0 0 0 8,15.5 7.5,7.5 0 0 0 15.5,8 7.5,7.5 0 0 0 8,0.5 Z M 6.7246094,2.2753906 H 9.3085938 L 13.007812,13 H 10.931641 L 9.96875,10.208984 H 6.0371094 L 5.0605469,13 h -2.0625 z m 1.1953125,2.0078125 c -0.1375,0.97625 -1.3066407,4.2070313 -1.3066407,4.2070313 h 2.7636719 c 0,0 -1.1964062,-3.2307813 -1.3476562,-4.2070313 z" style="fill:#ffffff;fill-opacity:1;stroke:none;stroke-width:1.5;stroke-linejoin:round;stroke-miterlimit:4;stroke-dasharray:none"/>
    <path inkscape:connector-curvature="0" id="circle4394" transform="translate(0,80)" d="M 40,16.5 A 7.5,7.5 0 0 0 32.5,24 7.5,7.5 0 0 0 40,31.5 7.5,7.5 0 0 0 47.5,24 7.5,7.5 0 0 0 40,16.5 Z m 0,3.230469 4.800781,6.519531 h -9.601562 z" style="fill:#ffffff;fill-opacity:1;stroke:none;stroke-width:1.5;stroke-linejoin:round;stroke-miterlimit:4;stroke-dasharray:none"/>
    <path inkscape:connector-curvature="0" id="circle4396" transform="translate(0,80)" d="M 24,16.5 A 7.5,7.5 0 0 0 16.5,24 7.5,7.5 0 0 0 24,31.5 7.5,7.5 0 0 0 31.5,24 7.5,7.5 0 0 0 24,16.5 Z m 2.25,2.699219 v 9.601562 L 19.730469,24 Z" style="fill:#ffffff;fill-opacity:1;stroke:none;stroke-width:1.5;stroke-linejoin:round;stroke-miterlimit:4;stroke-dasharray:none"/>
    <circle style="fill:#008000;fill-opacity:1;stroke:none;stroke-width:1.5;stroke-linejoin:round;stroke-miterlimit:4;stroke-dasharray:none" id="circle4398" cx="-9.0589514" cy="72.445358" r="7.5"/>
    <path inkscape:connector-curvature="0" id="circle4400" transform="translate(0,80)" d="M 56,16.5 A 7.5,7.5 0 0 0 48.5,24 7.5,7.5 0 0 0 56,31.5 7.5,7.5 0 0 0 63.5,24 7.5,7.5 0 0 0 56,16.5 Z m -4.800781,5.25 h 9.601562 L 56,28.269531 Z" style="fill:#ffffff;fill-opacity:1;stroke:none;stroke-width:1.5;stroke-linejoin:round;stroke-miterlimit:4;stroke-dasharray:none"/>
    <path inkscape:connector-curvature="0" id="circle4496" transform="translate(0,80)" d="M 8,16.5 A 7.5,7.5 0 0 0 0.5,24 7.5,7.5 0 0 0 8,31.5 7.5,7.5 0 0 0 15.5,24 7.5,7.5 0 0 0 8,16.5 Z M 5.75,19.199219 12.269531,24 5.75,28.800781 Z" style="fill:#ffffff;fill-opacity:1;stroke:none;stroke-width:1.5;stroke-linejoin:round;stroke-miterlimit:4;stroke-dasharray:none"/>
    <g transform="translate(0,-0.75)" id="text4498" style="font-style:normal;font-variant:normal;font-weight:bold;font-stretch:extra-expanded;font-size:10px;line-height:125%;font-family:'FOT-Rodin Pro';-inkscape-font-specification:'FOT-Rodin Pro, Bold Extra-Expanded';text-align:start;letter-spacing:0px;word-spacing:0px;writing-mode:lr-tb;text-anchor:start;fill:#000000;fill-opacity:1;stroke:none;stroke-width:1px;stroke-linecap:butt;stroke-linejoin:miter;stroke-opacity:1"/>
    <g transform="matrix(1,0,0,-1,16,208.75)" style="font-style:normal;font-variant:normal;font-weight:bold;font-stretch:extra-expanded;font-size:10px;line-height:125%;font-family:'FOT-Rodin Pro';-inkscape-font-specification:'FOT-Rodin Pro, Bold Extra-Expanded';text-align:start;letter-spacing:0px;word-spacing:0px;writing-mode:lr-tb;text-anchor:start;fill:#000000;fill-opacity:1;stroke:none;stroke-width:1px;stroke-linecap:butt;stroke-linejoin:miter;stroke-opacity:1" id="g4184"/>
    <g id="g4188" style="font-style:normal;font-variant:normal;font-weight:bold;font-stretch:extra-expanded;font-size:10px;line-height:125%;font-family:'FOT-Rodin Pro';-inkscape-font-specification:'FOT-Rodin Pro, Bold Extra-Expanded';text-align:start;letter-spacing:0px;word-spacing:0px;writing-mode:lr-tb;text-anchor:start;fill:#000000;fill-opacity:1;stroke:none;stroke-width:1px;stroke-linecap:butt;stroke-linejoin:miter;stroke-opacity:1" transform="matrix(0,-1,-1,0,112.75,144)"/>
    <g transform="rotate(-90,31.625,112.375)" style="font-style:normal;font-variant:normal;font-weight:bold;font-stretch:extra-expanded;font-size:10px;line-height:125%;font-family:'FOT-Rodin Pro';-inkscape-font-specification:'FOT-Rodin Pro, Bold Extra-Expanded';text-align:start;letter-spacing:0px;word-spacing:0px;writing-mode:lr-tb;text-anchor:start;fill:#000000;fill-opacity:1;stroke:none;stroke-width:1px;stroke-linecap:butt;stroke-linejoin:miter;stroke-opacity:1" id="g4192"/>
    <path sodipodi:nodetypes="cccc" inkscape:connector-curvature="0" id="path4205" d="m 50.5,112.5 h 11 l -5.5,15 z" style="fill:#ffffff;fill-rule:evenodd;stroke:none;stroke-width:1px;stroke-linecap:butt;stroke-linejoin:miter;stroke-opacity:1;filter:url(#filter4479)"/>
    <g id="g887">
      <path style="fill:#ffffff;fill-rule:evenodd" d="M 55,89.25 55.5,94 c 0,0 0.270179,0.5 1,0.5 0.729821,0 1,-0.5 1,-0.5 L 58,89.25" id="path4150" inkscape:connector-curvature="0" sodipodi:nodetypes="cczcc"/>
      <ellipse style="fill:url(#radialGradient4177);fill-opacity:1;fill-rule:nonzero;stroke:none;stroke-width:1;stroke-linecap:round;stroke-linejoin:round;stroke-miterlimit:4;stroke-dasharray:none;stroke-opacity:0.498039" id="path4151" cx="56.5" cy="85.5" rx="6" ry="4"/>
    </g>
  </g>
</svg>
