<?xml version="1.0" encoding="UTF-8" standalone="no"?>
<svg id="svg2" width="64" height="48" viewBox="0 0 64 48" inkscape:version="1.0.2-2 (e86c870879, 2021-01-15)" sodipodi:docname="control.svg" version="1.1" xmlns="http://www.w3.org/2000/svg" xmlns:cc="http://creativecommons.org/ns#" xmlns:dc="http://purl.org/dc/elements/1.1/" xmlns:inkscape="http://www.inkscape.org/namespaces/inkscape" xmlns:osb="http://www.openswatchbook.org/uri/2009/osb" xmlns:rdf="http://www.w3.org/1999/02/22-rdf-syntax-ns#" xmlns:sodipodi="http://sodipodi.sourceforge.net/DTD/sodipodi-0.dtd" xmlns:svg="http://www.w3.org/2000/svg" xmlns:xlink="http://www.w3.org/1999/xlink">
	<style>
		.xfd96c3669c8718ae71007486c408b5c0{stop-color:#ffffff;stop-opacity:1;}
		.xb1d9e1d7b50ac67f7e77ae0f5e9c0aa6{stop-color:#ffffff;stop-opacity:0.49803922;}
		.xfb8c6c98cf58004e8316f42e6a519604{image-rendering:optimizeSpeed;}
		.x64627d22742301a313b00e1993bd917c{fill-opacity:1;fill:#ffffff;stroke-dasharray:none;stroke-linejoin:round;stroke-miterlimit:4;stroke-width:1.5;stroke:none;}
		.xc2ff623dd95133293b3de8a294d8a065{fill-opacity:1;fill:#008000;stroke-dasharray:none;stroke-linejoin:round;stroke-miterlimit:4;stroke-width:1.5;stroke:none;}
	</style>
	<sodipodi:namedview id="base" bordercolor="#666666" borderopacity="1.0" inkscape:current-layer="layer1" inkscape:cx="-2.445484" inkscape:cy="4.2700758" inkscape:document-rotation="0" inkscape:document-units="px" inkscape:guide-bbox="true" inkscape:object-nodes="true" inkscape:pageopacity="0" inkscape:pageshadow="2" inkscape:snap-page="true" inkscape:snap-text-baseline="true" inkscape:window-height="2066" inkscape:window-maximized="1" inkscape:window-width="3840" inkscape:window-x="-11" inkscape:window-y="-11" inkscape:zoom="16" pagecolor="#819dde" showgrid="false" showguides="false" units="px">
		<sodipodi:guide id="guide4325" inkscape:color="rgb(0,0,255)" inkscape:label="" orientation="0,1" position="0,3"/>
		<sodipodi:guide id="guide4327" inkscape:color="rgb(0,0,255)" inkscape:label="" orientation="0,1" position="0,18"/>
		<sodipodi:guide id="guide4329" inkscape:color="rgb(0,0,255)" inkscape:label="" orientation="1,0" position="17.1,32.000017"/>
		<sodipodi:guide id="guide4331" inkscape:color="rgb(0,0,255)" inkscape:label="" orientation="1,0" position="33.1,33.1"/>
		<sodipodi:guide id="guide4333" orientation="1,0" position="48,32.000017"/>
		<sodipodi:guide id="guide4335" orientation="1,0" position="64,32.000017"/>
		<sodipodi:guide id="guide4352" inkscape:color="rgb(0,0,255)" inkscape:label="" orientation="0,1" position="-19,35"/>
		<sodipodi:guide id="guide4356" inkscape:color="rgb(0,0,255)" inkscape:label="" orientation="1,0" position="1.1,51.176853"/>
		<sodipodi:guide id="guide4392" inkscape:color="rgb(0,0,255)" inkscape:label="" orientation="0,1" position="32.029728,34.66666"/>
		<sodipodi:guide id="guide4464" inkscape:color="rgb(0,0,255)" inkscape:label="" orientation="0,1" position="-3.1819805,14.5"/>
	</sodipodi:namedview>
	<defs id="defs4">
		<radialGradient id="radialGradient4177" cx="7.9834137" cy="4.8651452" fx="7.9834137" fy="4.8651452" gradientTransform="matrix(0.88497474,-0.00578572,0.00338711,0.51805417,49.489831,2.632924)" gradientUnits="userSpaceOnUse" inkscape:collect="always" r="6" xlink:href="#linearGradient4167"/>
		<linearGradient id="linearGradient4167" osb:paint="gradient">
			<stop id="stop4169" class="xfd96c3669c8718ae71007486c408b5c0" offset="0"/>
			<stop id="stop4148" class="xfd96c3669c8718ae71007486c408b5c0" offset="0.2690303"/>
			<stop id="stop4146" class="xb1d9e1d7b50ac67f7e77ae0f5e9c0aa6" offset="0.48761743"/>
			<stop id="stop4144" class="xfd96c3669c8718ae71007486c408b5c0" offset="0.6727407"/>
			<stop id="stop4142" class="xb1d9e1d7b50ac67f7e77ae0f5e9c0aa6" offset="0.8664605"/>
			<stop id="stop4171" class="xfd96c3669c8718ae71007486c408b5c0" offset="1"/>
		</linearGradient>
		<filter id="filter4479" x="-0.072" y="-0.051428571" width="1.144" height="1.1028571" inkscape:collect="always" style="color-interpolation-filters:sRGB">
			<feGaussianBlur id="feGaussianBlur4481" inkscape:collect="always" stdDeviation="0.01"/>
		</filter>
	</defs>
	<metadata id="metadata7">
		<rdf:RDF>
			<cc:Work rdf:about="">
				<dc:format>image/svg+xml</dc:format>
				<dc:type rdf:resource="http://purl.org/dc/dcmitype/StillImage"/>
				<dc:title/>
			</cc:Work>
		</rdf:RDF>
	</metadata>
	<g id="layer1" inkscape:groupmode="layer" inkscape:label="dump" style="display:inline;opacity:0">
		<image id="tex1_16x16_7b2805eb1ec0c97d_0" x="48" y="0" width="16" height="16" class="xfb8c6c98cf58004e8316f42e6a519604" preserveAspectRatio="none" xlink:href="control/tex1_16x16_7b2805eb1ec0c97d_0.png"/>
		<image id="tex1_16x16_7c95b2e914723be3_0" x="16" y="0" width="16" height="16" class="xfb8c6c98cf58004e8316f42e6a519604" preserveAspectRatio="none" xlink:href="control/tex1_16x16_7c95b2e914723be3_0.png"/>
		<image id="tex1_16x16_21f71b347dc114dd_0" x="32" y="16" width="16" height="16" class="xfb8c6c98cf58004e8316f42e6a519604" preserveAspectRatio="none" xlink:href="control/tex1_16x16_21f71b347dc114dd_0.png"/>
		<image id="tex1_16x16_67c3509ce5ac4ffa_0" x="48" y="32" width="16" height="16" class="xfb8c6c98cf58004e8316f42e6a519604" preserveAspectRatio="none" xlink:href="control/tex1_16x16_67c3509ce5ac4ffa_0.png"/>
		<image id="tex1_16x16_89bf9b13660f2c99_0" x="16" y="16" width="16" height="16" class="xfb8c6c98cf58004e8316f42e6a519604" preserveAspectRatio="none" xlink:href="control/tex1_16x16_89bf9b13660f2c99_0.png"/>
		<image id="tex1_16x16_4708da15e2617a86_0" x="32" y="0" width="16" height="16" class="xfb8c6c98cf58004e8316f42e6a519604" preserveAspectRatio="none" xlink:href="control/tex1_16x16_4708da15e2617a86_0.png"/>
		<image id="tex1_16x16_30688c67e0786401_0" x="0" y="0" width="16" height="16" class="xfb8c6c98cf58004e8316f42e6a519604" preserveAspectRatio="none" xlink:href="control/tex1_16x16_30688c67e0786401_0.png"/>
		<image id="tex1_16x16_aa98f7c5e06840bd_0" x="0" y="32" width="16" height="16" class="xfb8c6c98cf58004e8316f42e6a519604" preserveAspectRatio="none" xlink:href="control/tex1_16x16_aa98f7c5e06840bd_0.png"/>
		<image id="tex1_16x16_b89573220355b1ab_0" x="0" y="16" width="16" height="16" class="xfb8c6c98cf58004e8316f42e6a519604" preserveAspectRatio="none" xlink:href="control/tex1_16x16_b89573220355b1ab_0.png"/>
		<image id="tex1_16x16_dc0a74a8903e9d12_0" x="32" y="32" width="16" height="16" class="xfb8c6c98cf58004e8316f42e6a519604" preserveAspectRatio="none" xlink:href="control/tex1_16x16_dc0a74a8903e9d12_0.png"/>
		<image id="tex1_16x16_f4d3fc331c7a8111_0" x="16" y="32" width="16" height="16" class="xfb8c6c98cf58004e8316f42e6a519604" preserveAspectRatio="none" xlink:href="control/tex1_16x16_f4d3fc331c7a8111_0.png"/>
		<image id="tex1_16x16_f5022f463973c72d_0" x="48" y="16" width="16" height="16" class="xfb8c6c98cf58004e8316f42e6a519604" preserveAspectRatio="none" xlink:href="control/tex1_16x16_f5022f463973c72d_0.png"/>
	</g>
	<g id="layer2" inkscape:groupmode="layer" inkscape:label="hd" sodipodi:insensitive="true" style="display:inline;opacity:1">
		<path id="rect4491" class="x64627d22742301a313b00e1993bd917c" d="m 2.0996094,32.5 c -0.554,0 -1,0.446 -1,1 v 13 c 0,0.554 0.446,1 1,1 H 13.900391 c 0.554,0 1,-0.446 1,-1 v -13 c 0,-0.554 -0.446,-1 -1,-1 z m 2.8359375,1.775391 h 2.0625 v 8.882812 H 11.824219 V 45 H 4.9355469 Z" inkscape:connector-curvature="0"/>
		<path id="rect4468" class="x64627d22742301a313b00e1993bd917c" d="m 34.099609,32.5 c -0.554,0 -1,0.446 -1,1 v 13 c 0,0.554 0.446,1 1,1 h 11.800782 c 0.554,0 1,-0.446 1,-1 v -13 c 0,-0.554 -0.446,-1 -1,-1 z m 2.273438,1.775391 h 7.423828 v 1.52539 l -5.416016,7.480469 h 5.429688 V 45 h -7.822266 v -1.650391 l 5.388672,-7.355468 h -5.003906 z" inkscape:connector-curvature="0"/>
		<path id="rect4466" class="x64627d22742301a313b00e1993bd917c" d="m 18.099609,32.5 c -0.554,0 -1,0.446 -1,1 v 13 c 0,0.554 0.446,1 1,1 h 11.800782 c 0.554,0 1,-0.446 1,-1 v -13 c 0,-0.554 -0.446,-1 -1,-1 z m 2.175782,1.775391 h 4.332031 c 2.02125,0 3.451172,1.16875 3.451172,3.09375 0,1.71875 -0.784532,2.624921 -1.925782,2.982421 L 28.759766,45 h -2.40625 l -2.13086,-4.304688 H 22.283203 V 45 h -2.007812 z m 2.007812,1.705078 v 3.107422 h 1.980469 c 1.03125,0 1.71875,-0.564297 1.71875,-1.623047 0,-0.9625 -0.742344,-1.484375 -1.746094,-1.484375 z" inkscape:connector-curvature="0"/>
		<rect id="rect4462" x="-18.257048" y="83.862175" width="13.8" height="15" class="xc2ff623dd95133293b3de8a294d8a065" rx="1" ry="1"/>
		<path id="circle4362" class="x64627d22742301a313b00e1993bd917c" d="M 40,0.5 A 7.5,7.5 0 0 0 32.5,8 7.5,7.5 0 0 0 40,15.5 7.5,7.5 0 0 0 47.5,8 7.5,7.5 0 0 0 40,0.5 Z m 0.191406,1.8476562 c 1.91125,0 3.313203,0.8935938 3.876953,2.0898438 l -1.292968,1.1953125 c -0.39875,-0.8525 -1.374922,-1.484375 -2.419922,-1.484375 -1.6775,0 -2.982422,1.41625 -2.982422,3.78125 0,2.5850005 1.359844,3.8359375 2.996094,3.8359375 1.03125,0 2.104922,-0.617734 2.544921,-1.552734 l 1.236329,1.263671 c -0.67375,1.278751 -2.102813,2.117188 -3.945313,2.117188 -2.9975,0 -5.019531,-2.157812 -5.019531,-5.6640625 0,-3.355 2.022109,-5.5820313 5.005859,-5.5820313 z" inkscape:connector-curvature="0"/>
		<path id="circle4360" class="x64627d22742301a313b00e1993bd917c" d="M 24,0.5 A 7.5,7.5 0 0 0 16.5,8 7.5,7.5 0 0 0 24,15.5 7.5,7.5 0 0 0 31.5,8 7.5,7.5 0 0 0 24,0.5 Z m -3.439453,2.1074219 h 4.236328 c 1.98,0 3.298828,1.1141406 3.298828,2.6816406 0,1.265 -0.646484,2.0769531 -1.677734,2.2832031 l 0.01367,0.027344 c 1.155,0.12375 2.283203,1.0725781 2.283203,2.7363284 0,1.814999 -1.403203,2.998046 -3.658203,2.998046 H 20.560545 V 2.6074221 Z m 2.035156,1.6503906 v 2.7089844 h 1.994141 c 0.89375,0 1.484375,-0.4403907 1.484375,-1.3066407 0,-0.94875 -0.796094,-1.4023437 -1.621094,-1.4023437 z m 0,4.2910156 v 3.0800779 h 2.1875 c 1.1275,0 1.896485,-0.550859 1.896485,-1.568359 -10e-7,-1.0175001 -0.949375,-1.5117189 -1.953126,-1.5117189 z" inkscape:connector-curvature="0"/>
		<path id="path4358" class="x64627d22742301a313b00e1993bd917c" d="M 8,0.5 A 7.5,7.5 0 0 0 0.5,8 7.5,7.5 0 0 0 8,15.5 7.5,7.5 0 0 0 15.5,8 7.5,7.5 0 0 0 8,0.5 Z M 6.7246094,2.2753906 H 9.3085938 L 13.007812,13 H 10.931641 L 9.96875,10.208984 H 6.0371094 L 5.0605469,13 h -2.0625 z m 1.1953125,2.0078125 c -0.1375,0.97625 -1.3066407,4.2070313 -1.3066407,4.2070313 h 2.7636719 c 0,0 -1.1964062,-3.2307813 -1.3476562,-4.2070313 z" inkscape:connector-curvature="0"/>
		<path id="circle4394" class="x64627d22742301a313b00e1993bd917c" d="M 40,16.5 A 7.5,7.5 0 0 0 32.5,24 7.5,7.5 0 0 0 40,31.5 7.5,7.5 0 0 0 47.5,24 7.5,7.5 0 0 0 40,16.5 Z m 0,3.230469 4.800781,6.519531 h -9.601562 z" inkscape:connector-curvature="0"/>
		<path id="circle4396" class="x64627d22742301a313b00e1993bd917c" d="M 24,16.5 A 7.5,7.5 0 0 0 16.5,24 7.5,7.5 0 0 0 24,31.5 7.5,7.5 0 0 0 31.5,24 7.5,7.5 0 0 0 24,16.5 Z m 2.25,2.699219 v 9.601562 L 19.730469,24 Z" inkscape:connector-curvature="0"/>
		<circle id="circle4398" class="xc2ff623dd95133293b3de8a294d8a065" cx="-9.0589514" cy="72.445358" r="7.5"/>
		<path id="circle4400" class="x64627d22742301a313b00e1993bd917c" d="M 56,16.5 A 7.5,7.5 0 0 0 48.5,24 7.5,7.5 0 0 0 56,31.5 7.5,7.5 0 0 0 63.5,24 7.5,7.5 0 0 0 56,16.5 Z m -4.800781,5.25 h 9.601562 L 56,28.269531 Z" inkscape:connector-curvature="0"/>
		<path id="circle4496" class="x64627d22742301a313b00e1993bd917c" d="M 8,16.5 A 7.5,7.5 0 0 0 0.5,24 7.5,7.5 0 0 0 8,31.5 7.5,7.5 0 0 0 15.5,24 7.5,7.5 0 0 0 8,16.5 Z M 5.75,19.199219 12.269531,24 5.75,28.800781 Z" inkscape:connector-curvature="0"/>
		<!-- <g style="font-style:normal;font-variant:normal;font-weight:bold;font-stretch:extra-expanded;font-size:10px;line-height:125%;font-family:'FOT-Rodin Pro';-inkscape-font-specification:'FOT-Rodin Pro, Bold Extra-Expanded';text-align:start;letter-spacing:0px;word-spacing:0px;writing-mode:lr-tb;text-anchor:start"/> -->
		<path id="path4205" d="m 50.5,32.5 h 11 l -5.5,15 z" inkscape:connector-curvature="0" sodipodi:nodetypes="cccc" style="fill:#ffffff;fill-rule:evenodd;stroke:none;stroke-width:1px;stroke-linecap:butt;stroke-linejoin:miter;stroke-opacity:1;filter:url(#filter4479)"/>
		<g id="g887">
			<path id="path4150" d="M 55,9.25 55.5,14 c 0,0 0.270179,0.5 1,0.5 0.729821,0 1,-0.5 1,-0.5 L 58,9.25" inkscape:connector-curvature="0" sodipodi:nodetypes="cczcc" style="fill:#ffffff;fill-rule:evenodd"/>
			<ellipse id="path4151" cx="56.5" cy="5.5" rx="6" ry="4" style="fill:url(#radialGradient4177);fill-opacity:1;fill-rule:nonzero;stroke:none;stroke-width:1;stroke-linecap:round;stroke-linejoin:round;stroke-miterlimit:4;stroke-dasharray:none;stroke-opacity:0.498039"/>
		</g>
	</g>
</svg>
